<?xml version="1.0" encoding="utf-8"?>
<!-- Generator: Adobe Illustrator 25.2.0, SVG Export Plug-In . SVG Version: 6.00 Build 0)  -->
<svg version="1.1" id="Layer_1" xmlns="http://www.w3.org/2000/svg" xmlns:xlink="http://www.w3.org/1999/xlink" x="0px" y="0px"
	 viewBox="0 0 532.9 345.3" style="enable-background:new 0 0 532.9 345.3;" xml:space="preserve">
<style type="text/css">
	.st0{fill:#FFFFFF;}
	.st1{font-family:'Mont-HeavyDEMO';}
	.st2{font-size:173.7474px;}
</style>
<g>
	<path class="st0" d="M151.6,284c7.3,2,14,4.5,20.9,5.6c5.1,0.8,10.6,0.2,15.8-0.6c5.6-0.9,8.3-5.3,8.1-10.9c-0.2-4.7-3.4-7.2-7-9.1
		c-3.9-1.9-8.1-3.4-12.2-4.8c-7.2-2.5-13.9-6.2-19.5-11.3c-4.6-4.2-7.6-9.6-7.8-16c-0.2-5.4-0.3-10.8,0-16.2
		c0.4-6.5,4-11.6,8.3-16.2c8.3-8.8,19-11.6,30.6-12c11.6-0.4,22.7,2.3,33.5,6.2c0.6,0.2,1.4,1.2,1.3,1.7c-0.9,7.9-3.4,15.3-6.6,22.4
		c-4.8-1.6-9.4-3.8-14.1-4.6c-5.3-0.8-10.8-1-16.1-0.3c-6.3,0.8-9.2,6.1-7.6,12c0.4,1.2,1.2,2.6,2.2,3.2c3.8,2.3,7.8,4.4,11.8,6.2
		c5.4,2.6,11.2,4.6,16.4,7.4c3.9,2.1,7.6,5,10.9,8.1c3.7,3.6,6,8.4,6.5,13.5c0.5,5.9,0.7,12,0,17.9c-1,7.9-5.5,14.1-11.5,19.3
		c-7.2,6.2-15.6,9.5-25.1,9.7c-7.8,0.1-15.7,0.7-23.4-0.2c-6.7-0.8-13.2-3.4-19.8-5.4c-0.5-0.1-1-1.3-0.9-1.9
		c0.6-3.8,1.3-7.6,2.1-11.4C149.4,292.1,150.6,287.9,151.6,284z"/>
	<path class="st0" d="M296.2,282.5c-8.1,0-15.9,0-23.9,0c0,10.6,0,21,0,31.5c-9.5,1.7-18.8,1.8-28.4,0c0-0.9,0-1.7,0-2.5
		c0-26.8,0-53.6-0.1-80.5c0-2.1,0.5-3,2.7-3.3c7.9-1.2,15.7-1.2,23.6,0.1c1.7,0.3,2.2,1,2.2,2.7c-0.1,7.8,0,15.6,0,23.5
		c0,0.9,0,1.9,0,3c8,0,15.7,0,23.9,0c0-9.5,0-19.1,0-28.7c9.6-2,18.8-2,28.1-0.1c0,28.6,0,57.1,0,85.8c-9.3,1.7-18.5,1.7-28.1,0
		C296.2,303.5,296.2,293.1,296.2,282.5z"/>
	<path class="st0" d="M424.3,271.5c0.1,6.9-1,13.5-3.3,20c-4.6,12.6-13.6,20.6-26.5,23.4c-5.9,1.3-12.3,0.6-18.5,0.8
		c-5.9,0.1-11.5-1.3-16.6-4.1c-7.7-4.2-13.5-10.6-16.7-18.6c-5.3-13.3-5.5-27-0.8-40.6c5.8-16.7,18.4-24.4,35.5-25.8
		c10.7-0.9,20.7,1.2,29.9,6.7c4.9,2.9,8.5,7.2,11.1,12.5C422.4,253.8,424.4,262.4,424.3,271.5z M396.8,271.8
		c-0.2-0.1-0.3-0.1-0.5-0.2c-0.2-2.6-0.3-5.2-0.8-7.7c-0.9-4.6-2-9-6.4-11.8c-6.7-4.4-16.4-2.1-19.2,5.1c-3.7,9.3-3.7,18.8-0.1,28.2
		c1.9,5.1,5.8,8,11.4,8.1c5.7,0.1,10.3-2.5,12.3-8C395.1,281,395.8,276.3,396.8,271.8z"/>
	<path class="st0" d="M438.6,228.6c15.9-1.7,31.7-4.1,47.5-0.4c4.7,1.1,9.6,2.8,13.4,5.6c5.5,4,9.6,9.7,10.3,16.7
		c0.7,6.4,1.3,13.2-0.1,19.4c-3.1,13-12,20.9-25.3,23.2c-5.9,1-11.9,1.1-18.2,1.6c0,6.1,0,12.7,0,19.5c-9.4,1.7-18.4,1.7-27.5,0
		C438.6,285.7,438.6,257.3,438.6,228.6z M466.1,260.1c0,3.6-0.1,7.2,0,10.8c0,0.7,0.6,1.7,1.1,1.9c4.1,1.4,11.1-0.8,13.7-4.3
		c2.9-3.7,3.1-11.8,0.7-15.2c-3.4-4.8-8.2-5.8-13.5-5.6c-1.5,0.1-2.1,0.7-2,2.2C466.2,253.4,466.1,256.7,466.1,260.1z"/>
	<text transform="matrix(1 0 0 1 22.2988 318.9356)" class="st0 st1 st2">c</text>
	<path class="st0" d="M459.5,26.4c-44.7,0-89.5,0-134.2,0c-5.5,0-6.7,1.1-6.7,6.6c0,45,0,90,0,134.9c0,4.6,1.3,5.9,6,5.9
		c0.8,0,1.6,0,2.4,0v0h106.5c0,4,0,7.9,0,11.9c0.2,0.1,0.4,0.1,0.6,0.2c1.5-2.9,3.1-5.6,4.3-8.6c0.8-1.9,1.6-3.1,3.4-3.5h4.5
		c3.4,0.1,6.9,0,10.3,0l0,0c1.2,0,2.4,0,3.5,0c4.7,0,6-1.2,6-5.9c0-45,0-90,0-134.9C466.1,27.5,465,26.4,459.5,26.4z M392.6,160.8
		L392.6,160.8c-36.3,0-62.6-25.5-62.6-60.5s26.1-60,62.7-60c31.9,0,55.7,20.1,60,50.2h-38c-3.3-9.2-11.9-15.2-22.1-15.2
		c-13.7,0-23.5,10.4-23.5,25.2s9.9,25.4,23.5,25.4c10.5,0,19-6.4,22.2-16.5h38.4C448.8,140.1,424.5,160.8,392.6,160.8z"/>
</g>
</svg>
