<?xml version="1.0" encoding="utf-8"?>
<!-- Generator: Adobe Illustrator 25.2.0, SVG Export Plug-In . SVG Version: 6.00 Build 0)  -->
<svg version="1.1" id="Layer_1" xmlns="http://www.w3.org/2000/svg" xmlns:xlink="http://www.w3.org/1999/xlink" x="0px" y="0px"
	 viewBox="0 0 532.9 345.3" style="enable-background:new 0 0 532.9 345.3;" xml:space="preserve">
<style type="text/css">
	.st0{fill:#FFFFFF;}
	.st1{enable-background:new    ;}
</style>
<g>
	<g>
		<g>
			<path class="st0" d="M175.1,234.3c5.3,1.5,10.2,3.3,15.2,4.1c3.7,0.6,7.7,0.1,11.5-0.4c4.1-0.7,6-3.9,5.9-7.9
				c-0.1-3.4-2.5-5.2-5.1-6.6c-2.8-1.4-5.9-2.5-8.9-3.5c-5.2-1.8-10.1-4.5-14.2-8.2c-3.3-3.1-5.5-7-5.7-11.6
				c-0.1-3.9-0.2-7.9,0-11.8c0.3-4.7,2.9-8.4,6-11.8c6-6.4,13.8-8.4,22.3-8.7c8.4-0.3,16.5,1.7,24.4,4.5c0.4,0.1,1,0.9,0.9,1.2
				c-0.7,5.8-2.5,11.1-4.8,16.3c-3.5-1.2-6.8-2.8-10.3-3.3c-3.9-0.6-7.9-0.7-11.7-0.2c-4.6,0.6-6.7,4.4-5.5,8.7
				c0.3,0.9,0.9,1.9,1.6,2.3c2.8,1.7,5.7,3.2,8.6,4.5c3.9,1.9,8.2,3.3,11.9,5.4c2.8,1.5,5.5,3.6,7.9,5.9c2.7,2.6,4.4,6.1,4.7,9.8
				c0.4,4.3,0.5,8.7,0,13c-0.7,5.8-4,10.3-8.4,14.1c-5.2,4.5-11.4,6.9-18.3,7.1c-5.7,0.1-11.4,0.5-17-0.1c-4.9-0.6-9.6-2.5-14.4-3.9
				c-0.4-0.1-0.7-0.9-0.7-1.4c0.4-2.8,0.9-5.5,1.5-8.3C173.5,240.1,174.4,237.1,175.1,234.3z"/>
		</g>
		<g>
			<path class="st0" d="M280.4,233.2c-5.9,0-11.6,0-17.4,0c0,7.7,0,15.3,0,22.9c-6.9,1.2-13.7,1.3-20.7,0c0-0.7,0-1.2,0-1.8
				c0-19.5,0-39-0.1-58.6c0-1.5,0.4-2.2,2-2.4c5.8-0.9,11.4-0.9,17.2,0.1c1.2,0.2,1.6,0.7,1.6,2c-0.1,5.7,0,11.4,0,17.1
				c0,0.7,0,1.4,0,2.2c5.8,0,11.4,0,17.4,0c0-6.9,0-13.9,0-20.9c7-1.5,13.7-1.5,20.5-0.1c0,20.8,0,41.6,0,62.5
				c-6.8,1.2-13.5,1.2-20.5,0C280.4,248.4,280.4,240.9,280.4,233.2z"/>
		</g>
		<g>
			<path class="st0" d="M373.7,225.1c0.1,5-0.7,9.8-2.4,14.6c-3.3,9.2-9.9,15-19.3,17c-4.3,0.9-9,0.4-13.5,0.6
				c-4.3,0.1-8.4-0.9-12.1-3c-5.6-3.1-9.8-7.7-12.2-13.5c-3.9-9.7-4-19.7-0.6-29.6c4.2-12.2,13.4-17.8,25.8-18.8
				c7.8-0.7,15.1,0.9,21.8,4.9c3.6,2.1,6.2,5.2,8.1,9.1C372.3,212.3,373.7,218.5,373.7,225.1z M353.6,225.4
				c-0.1-0.1-0.2-0.1-0.4-0.1c-0.1-1.9-0.2-3.8-0.6-5.6c-0.7-3.3-1.5-6.6-4.7-8.6c-4.9-3.2-11.9-1.5-14,3.7
				c-2.7,6.8-2.7,13.7-0.1,20.5c1.4,3.7,4.2,5.8,8.3,5.9c4.2,0.1,7.5-1.8,9-5.8C352.4,232.1,352.9,228.6,353.6,225.4z"/>
		</g>
		<g>
			<path class="st0" d="M384.1,193.9c11.6-1.2,23.1-3,34.6-0.3c3.4,0.8,7,2,9.8,4.1c4,2.9,7,7.1,7.5,12.2c0.5,4.7,0.9,9.6-0.1,14.1
				c-2.3,9.5-8.7,15.2-18.4,16.9c-4.3,0.7-8.7,0.8-13.3,1.2c0,4.4,0,9.2,0,14.2c-6.8,1.2-13.4,1.2-20,0
				C384.1,235.5,384.1,214.8,384.1,193.9z M404.1,216.8c0,2.6-0.1,5.2,0,7.9c0,0.5,0.4,1.2,0.8,1.4c3,1,8.1-0.6,10-3.1
				c2.1-2.7,2.3-8.6,0.5-11.1c-2.5-3.5-6-4.2-9.8-4.1c-1.1,0.1-1.5,0.5-1.5,1.6C404.2,212,404.1,214.4,404.1,216.8z"/>
		</g>
		<g class="st1">
			<path class="st0" d="M130.1,252.7c-19.6,0-33.7-13.7-33.7-32.6c0-18.9,14.1-32.3,33.8-32.3c17.1,0,30,10.8,32.3,27H142
				c-1.8-5-6.4-8.2-11.9-8.2c-7.4,0-12.6,5.6-12.6,13.6c0,8,5.3,13.7,12.6,13.7c5.6,0,10.2-3.5,11.9-8.9h20.7
				C160.4,241.5,147.3,252.7,130.1,252.7L130.1,252.7z"/>
		</g>
		<g>
			<path class="st0" d="M399.3,46.7c-32.5,0-65.2,0-97.7,0c-4,0-4.9,0.8-4.9,4.8c0,32.8,0,65.5,0,98.2c0,3.3,0.9,4.3,4.4,4.3
				c0.6,0,1.2,0,1.7,0l0,0h77.5c0,2.9,0,5.8,0,8.7c0.1,0.1,0.3,0.1,0.4,0.1c1.1-2.1,2.3-4.1,3.1-6.3c0.6-1.4,1.2-2.3,2.5-2.5h3.3
				c2.5,0.1,5,0,7.5,0l0,0c0.9,0,1.7,0,2.5,0c3.4,0,4.4-0.9,4.4-4.3c0-32.8,0-65.5,0-98.2C404.1,47.5,403.3,46.7,399.3,46.7z
				 M350.6,144.5L350.6,144.5c-26.4,0-45.6-18.6-45.6-44.1s19-43.7,45.7-43.7c23.2,0,40.6,14.6,43.7,36.6h-27.7
				c-2.4-6.7-8.7-11.1-16.1-11.1c-10,0-17.1,7.6-17.1,18.3s7.2,18.5,17.1,18.5c7.6,0,13.8-4.7,16.2-12h28
				C391.5,129.5,373.8,144.5,350.6,144.5z"/>
		</g>
	</g>
	<g id="Delivery_Time_1_">
		<path class="st0" d="M205.1,297.3c0-7.2-1-16.4-1-16.4c0.3-0.6,1.1-2.7,1.1-3.5c0-0.1-1.1-0.1-1.4-0.1c-2.5,0-3.9,0.2-4,0.3
			c-0.8,0.8-3.6,8.4-3.8,9.1c0,0.1-0.1,0.2-0.1,0.2c-0.1,0-0.1-0.1-0.1-0.1c-0.6-2-3-8.9-3.3-9.1c-0.1-0.1-2.1-0.1-2.5-0.1
			c-1.2,0-3.7,0.1-3.8,0.3c0,0,0,0.1,0,0.1c0.2,1.1,0.5,2.1,1.1,3c0,0-1.1,11.5-1.1,17.1c0.3,0.1,0.7,0.2,1.1,0.2
			c0.7,0,2.3-0.1,3-0.7c-0.1-1.5-0.2-3-0.1-4.5c0-3.3,0.1-7.4,0.5-9.4c0-0.1,0.1-0.2,0.1-0.2s0.1,0.1,0.1,0.2
			c0.4,0.5,3.8,10.2,3.8,10.3c0.1,0.1,0.9,0.3,1.3,0.3c0.4,0,1.1-0.1,1.2-0.3c0,0,2.3-7.9,3.7-10.3c0,0,0.1-0.2,0.2-0.2
			c0,0,0.1,0,0.1,0.1c0.2,0.9,0.4,7,0.4,11.3c0,1.4,0,2.6-0.1,3.4c0,0.1,0.4,0.1,0.8,0.1C203.5,298.1,205.1,297.5,205.1,297.3z
			 M216.3,295.7c0.1,1.8,0.8,2.6,0.9,2.6c1.2,0,3.3-1.2,3.3-1.6c-0.5-0.7-0.7-1.5-0.8-2.3c-0.1-0.9-0.1-1.7-0.1-2.6
			c0-3.2,0.2-8,0.2-8.2c-0.2-0.1-0.5-0.1-0.7-0.1c-1.3,0-2.4,0.6-2.6,0.9c-0.1,0.2-0.2,3.7-0.2,5.8v1c0,0.3-0.9,2.2-2.4,2.2
			c-1.7,0-1.6-2.4-1.6-2.4c0-0.5-0.1-1.1-0.1-1.8c0-2.1,0.2-4.5,0.2-4.7c-0.1-0.1-0.8-0.1-0.8-0.1c-1.7,0-2.5,0.6-2.5,0.6
			c-0.1,0.3-0.3,3.5-0.3,5.7c0,0.9,0,1.6,0.1,2c0.2,2.2,0.9,4.8,3.5,4.8c1.4,0,2.9-0.9,3.9-2.4c0,0,0,0,0,0.1L216.3,295.7z
			 M227.3,284.7c0-2.2,0.1-7.2,0.1-7.6c0-0.1-0.5-0.1-0.7-0.1c-1.1,0-2.8,0.6-2.8,1.1c0,0.3,0.1,1.1,0.1,4c0,4.7-0.1,7.6-0.1,10.6
			c0,1.4,0,2.6,0,3.1c0.2,1.8,0.8,2.6,0.9,2.6c1.2,0,3.3-1.2,3.3-1.6c-0.5-0.7-0.8-1.5-0.9-2.3c-0.1-0.5-0.1-1.4-0.1-2.5
			C227.2,289.1,227.3,286.9,227.3,284.7z M235.7,277.6c0-0.1-0.5-0.1-0.7-0.1c-1.1,0-2.8,0.6-2.8,1.1c0.1,0.9,0.2,1.9,0.2,2.8
			c-0.9,0-1.6,0.1-1.6,0.1c-0.2,0.1-0.3,0.9-0.3,1.6c0,0.3,0,0.7,0.1,1c0,0,0.7,0,1.6,0c0,1.2-0.1,5.6-0.1,8.8c0,1.5,0,2.7,0.1,3.1
			c0.2,1.8,1.1,2.8,1.2,2.8c1.5,0,3.3-1.2,3.3-1.6c-0.7-0.7-1.1-1.5-1.2-2.5c-0.1-0.6-0.1-2.2-0.1-4.1s0-4.4,0.1-6.5h1.4
			c0.3,0,0.9-1.1,0.9-2.6c-0.7-0.1-1.5-0.1-2.2-0.1C235.6,279.4,235.6,277.9,235.7,277.6z M244.1,281.2c0-1.2-0.8-2-1.8-2
			s-2.1,1-2.1,2c0,1.3,0.7,2,1.8,2C243,283.2,244.1,282.3,244.1,281.2z M243,284.9c-1.7,0-2.4,0.5-2.4,0.5c-0.1,0.2-0.2,4.7-0.2,7.7
			c0,1.2,0,2.2,0.1,2.6c0.2,1.8,0.8,2.6,0.9,2.6c1.2,0,3.3-1.2,3.3-1.6c-0.5-0.7-0.7-1.5-0.8-2.3c-0.1-0.5-0.1-1.7-0.1-3
			c0-2.7,0.1-6.1,0.1-6.2C243.7,284.9,243,284.9,243,284.9z M260.9,298.2c1.1,0,3.2-0.1,4.3-0.7c0.8-0.8,6-15.4,6-20.9
			c0-0.1-0.4-0.1-0.4-0.1c-1.8,0-3.6,0.3-5.4,0.7c-0.1,0.1-0.4,1.1-0.4,1.6c0,0.1,0,0.1,0,0.2c0.7,0.1,1.8,0.8,1.8,1.2
			c0,4.6-3.3,12.7-3.8,13.6c0,0.1-0.2,0.3-0.3,0.3c-0.1,0-0.3-0.4-0.3-0.4c-1.8-3.6-4.4-14.7-4.5-16.1c0-0.1-0.6-0.1-0.6-0.1
			c-1.6,0-3,0.7-3,0.8c0,4.2,5.1,18.7,6.2,19.7C260.6,298.2,260.7,298.2,260.9,298.2L260.9,298.2z M281.2,287.4c0,2-2.6,3.7-3.8,3.8
			c-0.1,0-0.1-0.1-0.1-0.4c0-2.3,1.4-4.2,3-4.2c0.2,0,0.5,0.1,0.6,0.2C281.2,287,281.2,287.2,281.2,287.4L281.2,287.4z M279.9,297.4
			c2.8,0,3.8-0.7,3.8-0.7c0.6-0.7,0.7-1.9,0.7-2.6c0-0.2,0-0.6-0.1-0.6c0,0,0,0-0.1,0c-0.9,0.6-2.3,0.8-3.5,0.8
			c-1.5,0-2.1-0.6-2.1-0.8c3.8-1.3,6-4,6-6.4c0-2.6-2.3-3.2-3.7-3.2c-4.7,0-7.1,3.5-7.1,7.3C273.9,294.7,275.8,297.4,279.9,297.4z
			 M288.5,293.1c0,1.4,0,2.9-0.2,4.3c0,0.1,0.2,0.1,0.4,0.1c0.8,0,2.4-0.2,3-0.8c0.1-0.1,0.1-1.6,0.1-3.3c0-1.8,0-3.8,0-3.7
			c0,0,0.5-2.1,2.4-2.1c1.6,0,1.7,2.2,1.7,5.1c0,1.7-0.1,3.3-0.3,5c0.3,0.1,0.6,0.1,1,0.1c1.3,0,2.5-0.4,2.5-0.6
			c0,0,0.1-1.5,0.1-3.4c0-5-0.1-9.8-3.8-9.8c-2.2,0-3.6,1.8-3.6,1.8s-0.1,0.1-0.1,0.1c-0.1,0-0.1-0.1-0.1-0.6c0-0.6,0.1-1.3,0.1-1.5
			c0-0.1-0.4-0.1-0.6-0.1c-1.1,0-2.3,0.4-2.7,0.8c-0.1,0.1-0.1,0.9-0.1,2C288.5,288.2,288.5,290.8,288.5,293.1z M314.2,277
			c0-0.1-0.5-0.1-0.7-0.1c-1,0-1.9,0.4-2.7,1c-0.1,0.6-0.1,1.3-0.1,1.9c0,1.7,0.1,4,0.1,4.3c-5.4,0.2-7.9,4-7.9,8.1
			c0,2.3,1.5,5,4.3,5c1.4,0.1,2.8-0.6,3.7-1.8c0,0,0.1-0.1,0.1-0.1c0,0,0.1,0,0.1,0.1c0.1,1.4,0.8,2.2,0.9,2.2
			c1.2,0,3.3-1.2,3.3-1.6c-0.6-0.7-0.9-1.5-1-2.3c-0.1-0.9-0.2-3.7-0.2-5.9C314,285.1,314.1,279.5,314.2,277z M310.7,291.6
			c0,0.4-0.6,2.3-2.3,2.3c-1.4,0-2-1.1-2-2.5c0-2.3,1.4-4.3,4-4.3c0,0,0.5,0,0.4,0.1C310.8,288,310.7,291.1,310.7,291.6L310.7,291.6
			z M324.7,297.5c4.1,0,6.3-3.4,6.3-6.9c0-4.1-3-5.1-3.3-5.2c0.1-0.3,0.1-0.7,0.1-1.1c0-0.1,0-0.3-0.1-0.4c-0.2-0.2-1.6-0.2-1.6-0.2
			c-4.9,0-7.5,3.8-7.5,7.3C318.5,294.8,320.7,297.5,324.7,297.5L324.7,297.5z M327.6,290.9c0,2.6-1.5,3.6-2.9,3.6
			c-2.8,0-2.8-3.2-2.8-3.5c0-2.8,1.9-4.1,3.3-4.1c-0.1,0.3-0.1,0.6-0.1,0.9c0,0.1,0,0.3,0.1,0.4h0.2
			C325.9,288.2,327.6,288.4,327.6,290.9z M342.8,285.2c0-0.4-0.1-0.8-0.2-1.1c-2.7,0-4.4,2.3-4.4,2.3c-0.1,0.1-0.1,0.1-0.1,0.1
			c-0.1,0-0.1-0.6-0.1-0.7c0-0.8,0.1-1.9,0.1-2.1c0-0.1-0.4-0.1-0.6-0.1c-1.1,0-2.3,0.4-2.7,0.8c-0.1,0.1-0.1,0.8-0.1,1.8
			c0,1.7,0.1,4.3,0.1,6.7c0,1.5,0,3.1-0.2,4.6c0,0.1,0.1,0.1,0.2,0.1c0.8,0,2.5-0.1,3.2-0.8c0.1-0.1,0.1-1.9,0.1-3.6v-2.6
			c0.5-1.7,2-2.8,3.8-2.8c0.1,0,0.3,0,0.4,0.1C342.3,287.8,342.8,287.1,342.8,285.2L342.8,285.2z"/>
	</g>
</g>
</svg>
